<svg fill="#5A6053" height="480" preserveaspectratio="xMidYMax meet" viewBox="0 0 195.864 48" width="1958" xmlns="http://www.w3.org/2000/svg"><g class="aeven-logo-full"><path class="aeven-logo-1" d="M30.347 28.147v-2.365l-9.369.728c-6.913.636-9.55 2.91-9.55 6.549 0 4.093 2.728 6.094 7.731 6.094 6.822 0 11.188-4.093 11.188-11.006M.15 33.514c0-8.278 6.003-13.462 16.645-14.28l13.463-1.002v-1c0-6.094-3.64-8.55-9.279-8.55-6.549 0-10.187 2.729-10.187 7.458h-9.46c0-9.733 8.005-16.1 20.193-16.1C33.622.04 41.08 6.59 41.08 19.052V46.34h-9.732l-.819-6.64c-1.91 4.639-8.004 7.823-15.008 7.823-9.55 0-15.372-5.549-15.372-14.008"></path><path class="aeven-logo-2" d="M49.65 19.415h22.557c0-6.185-4.275-10.278-10.915-10.278-6.549 0-10.551 3.547-11.643 10.278m-10.824 4.457C38.825 9.772 48.012.04 61.2.04c13.462 0 22.012 9.005 22.012 23.012v3.366l-33.837.091c.819 7.913 5.003 11.915 12.37 11.915 6.095 0 10.097-2.364 11.37-6.64h10.28c-1.91 9.824-10.097 15.736-21.832 15.736-13.37 0-22.74-9.732-22.74-23.65"></path><path class="aeven-logo-3" d="M110.301 1.405l-12.37 31.179L85.56 1.405H74.645l17.828 44.934h10.915l17.829-44.934z"></path><path class="aeven-logo-4" d="M122.86 19.415h22.558c0-6.185-4.275-10.278-10.915-10.278-6.549 0-10.551 3.547-11.643 10.278m-10.824 4.457c0-14.1 9.187-23.831 22.376-23.831 13.462 0 22.012 9.005 22.012 23.012v3.366l-33.837.091c.819 7.913 5.003 11.915 12.37 11.915 6.096 0 10.097-2.364 11.371-6.64h10.278c-1.91 9.824-10.096 15.736-21.83 15.736-13.371 0-22.74-9.732-22.74-23.65"></path><path class="aeven-logo-5" d="M153.204 46.339V1.405h10.278l.91 5.821c2.82-4.548 8.277-7.185 14.372-7.185 11.279 0 17.1 7.003 17.1 18.646V46.34h-11.097V21.325c0-7.55-3.73-11.188-9.46-11.188-6.822 0-11.006 4.73-11.006 12.007v24.195h-11.097z"></path></g></svg>
