<svg width="1580" height="300" viewBox="0 0 158 30" fill="none" xmlns="http://www.w3.org/2000/svg">
<path fill-rule="evenodd" clip-rule="evenodd" d="M9.03038 11.2373H4.0231V26.0005H8.90199C10.1859 26.0005 11.7697 25.8683 12.8399 25.0308C14.5943 23.7088 14.8941 20.6683 14.8941 18.5975C14.8941 14.2343 13.8247 11.2373 9.03038 11.2373ZM14.0808 28.5566C12.3687 29.2176 10.4428 29.3062 8.6453 29.3062H0V0H4.0232V7.93252H9.80083C10.6573 7.93252 11.5553 7.97685 12.4117 8.10905C17.4198 8.90222 19.0458 13.6613 19.0458 18.2889C19.0458 22.2555 18.1048 26.9703 14.0808 28.5566Z" fill="#91BE1E"/>
<path fill-rule="evenodd" clip-rule="evenodd" d="M35.6009 19.6111H28.7523C26.3559 19.6111 24.6007 20.0077 24.6007 22.8716C24.6007 25.6042 26.4843 26.0008 28.7523 26.0008H35.6009V19.6111ZM28.1963 29.3057C26.9116 29.3057 25.5423 29.2614 24.3015 28.8205C21.6906 27.9394 20.4497 25.6035 20.4497 22.8709C20.4497 21.241 20.9202 19.5225 21.9466 18.2884C23.4881 16.349 25.9706 16.3054 28.2386 16.3054H35.6007V15.7323C35.6007 11.7221 34.6589 11.2377 30.9355 11.2377H21.2623V7.93201H32.0911C37.4843 7.93201 39.6239 9.47481 39.6239 15.2479V29.3057H28.1963Z" fill="#91BE1E"/>
<path fill-rule="evenodd" clip-rule="evenodd" d="M56.6409 29.3061V17.0112C56.6409 13.1332 55.7422 11.2381 51.6767 11.2381H46.8393V29.3061H42.8169V7.93323H52.3179C58.3954 7.93323 60.6211 10.3571 60.6211 16.5703V29.3061H56.6409Z" fill="#91BE1E"/>
<path fill-rule="evenodd" clip-rule="evenodd" d="M72.6312 16.3938H74.3856C79.436 16.3495 81.7478 17.8044 81.7478 23.3123V29.3062H77.7246V24.3699C77.7246 20.2275 76.526 19.39 72.5881 19.39H67.8377V29.3062H63.8145V0H67.8377V16.4382L77.6815 7.93252H82.7319L72.6312 16.3938Z" fill="#91BE1E"/>
<path fill-rule="evenodd" clip-rule="evenodd" d="M98.5772 11.2373H94.0835C89.2054 11.2373 87.6224 13.7934 87.6224 18.5967C87.6224 23.0478 88.5204 25.9997 93.4415 25.9997H98.5772V11.2373ZM93.4848 29.3054C91.7303 29.3054 89.9329 29.2611 88.306 28.6001C84.6688 27.146 83.4702 22.6949 83.4702 19.0377C83.4702 16.6574 84.0268 13.7056 85.2677 11.7219C87.1936 8.59271 90.4895 7.93252 93.8269 7.93252H98.5774V0H102.601V29.3054H93.4848Z" fill="#193655"/>
<path fill-rule="evenodd" clip-rule="evenodd" d="M119.592 19.6111H112.743C110.347 19.6111 108.592 20.0077 108.592 22.8716C108.592 25.6042 110.475 26.0008 112.743 26.0008H119.592V19.6111ZM112.187 29.3057C110.903 29.3057 109.534 29.2614 108.293 28.8205C105.682 27.9394 104.441 25.6035 104.441 22.8709C104.441 21.241 104.911 19.5225 105.939 18.2884C107.479 16.349 109.962 16.3054 112.23 16.3054H119.592V15.7323C119.592 11.7221 118.65 11.2377 114.927 11.2377H105.254V7.93201H116.082C121.476 7.93201 123.615 9.47481 123.615 15.2479V29.3057H112.187Z" fill="#193656"/>
<path fill-rule="evenodd" clip-rule="evenodd" d="M133.708 29.3054C129.128 29.3054 128.058 27.3225 128.058 22.9157V11.2374H124.12V7.93252H128.058V0H132.039V7.93252H138.073V11.2374H132.039V23.1358C132.039 23.929 132.081 24.8543 132.681 25.4274C133.324 26.0441 135.292 26.0441 136.104 26.0441C136.746 26.0441 137.431 26.0006 138.073 26.0006V29.3054H133.708Z" fill="#193555"/>
<path fill-rule="evenodd" clip-rule="evenodd" d="M153.977 19.6111H147.129C144.732 19.6111 142.977 20.0077 142.977 22.8716C142.977 25.6042 144.861 26.0008 147.129 26.0008H153.977V19.6111ZM146.573 29.3057C145.288 29.3057 143.919 29.2614 142.678 28.8205C140.067 27.9394 138.825 25.6035 138.825 22.8709C138.825 21.241 139.296 19.5225 140.323 18.2884C141.864 16.349 144.347 16.3054 146.615 16.3054H153.977V15.7323C153.977 11.7221 153.035 11.2377 149.312 11.2377H139.639V7.93201H150.467C155.861 7.93201 158 9.47481 158 15.2479V29.3057H146.573Z" fill="#0F3757"/>
</svg>
