<?xml version="1.0" encoding="UTF-8" standalone="no"?>
<!-- Created with Inkscape (http://www.inkscape.org/) -->

<svg
   xmlns:dc="http://purl.org/dc/elements/1.1/"
   xmlns:cc="http://creativecommons.org/ns#"
   xmlns:rdf="http://www.w3.org/1999/02/22-rdf-syntax-ns#"
   xmlns:svg="http://www.w3.org/2000/svg"
   xmlns="http://www.w3.org/2000/svg"
   xmlns:sodipodi="http://sodipodi.sourceforge.net/DTD/sodipodi-0.dtd"
   xmlns:inkscape="http://www.inkscape.org/namespaces/inkscape"
   id="svg2985"
   version="1.1"
   inkscape:version="0.48.5 r10040"
   width="1000"
   height="226.68245"
   xml:space="preserve"
   sodipodi:docname="A.svg"><metadata
     id="metadata2991"><rdf:RDF><cc:Work
         rdf:about=""><dc:format>image/svg+xml</dc:format><dc:type
           rdf:resource="http://purl.org/dc/dcmitype/StillImage" /><dc:title></dc:title></cc:Work></rdf:RDF></metadata><defs
     id="defs2989"><clipPath
       clipPathUnits="userSpaceOnUse"
       id="clipPath3001"><path
         d="m 396.85,423.779 155.905,0 0,155.905 -155.905,0 0,-155.905 z"
         id="path3003"
         inkscape:connector-curvature="0" /></clipPath><clipPath
       clipPathUnits="userSpaceOnUse"
       id="clipPath3013"><path
         d="m 63.779,423.779 155.906,0 0,155.905 -155.906,0 0,-155.905 z"
         id="path3015"
         inkscape:connector-curvature="0" /></clipPath><clipPath
       clipPathUnits="userSpaceOnUse"
       id="clipPath3025"><path
         d="m 230.315,423.779 155.905,0 0,155.905 -155.905,0 0,-155.905 z"
         id="path3027"
         inkscape:connector-curvature="0" /></clipPath><clipPath
       clipPathUnits="userSpaceOnUse"
       id="clipPath3049"><path
         d="m 443.599,50.337 109.156,0 0,58.797 -109.156,0 0,-58.797 z"
         id="path3051"
         inkscape:connector-curvature="0" /></clipPath><clipPath
       clipPathUnits="userSpaceOnUse"
       id="clipPath3143"><path
         inkscape:connector-curvature="0"
         d="m 439.37,773.755 113.386,0 0,25.615 -113.386,0 0,-25.615 z"
         id="path3145" /></clipPath></defs><sodipodi:namedview
     pagecolor="#ffffff"
     bordercolor="#666666"
     borderopacity="1"
     objecttolerance="10"
     gridtolerance="10"
     guidetolerance="10"
     inkscape:pageopacity="0"
     inkscape:pageshadow="2"
     inkscape:window-width="1049"
     inkscape:window-height="1021"
     id="namedview2987"
     showgrid="false"
     fit-margin-left="0.5"
     fit-margin-bottom="0.5"
     fit-margin-top="0.5"
     fit-margin-right="0.5"
     inkscape:zoom="0.51040964"
     inkscape:cx="524.04031"
     inkscape:cy="-166.75009"
     inkscape:window-x="861"
     inkscape:window-y="-9"
     inkscape:window-maximized="0"
     inkscape:current-layer="g3147" /><g
     id="g2993"
     inkscape:groupmode="layer"
     inkscape:label="sample testing flow meters_5811-063-gb"
     transform="matrix(1.25,0,0,-1.25,-784.64436,577.37612)"><g
       transform="matrix(7.0485017,0,0,7.0485017,-2468.7847,-5172.8585)"
       id="g3139"><g
         id="g3141"
         clip-path="url(#clipPath3143)"><g
           id="g3147"
           transform="translate(462.4428,783.7568)"><path
             inkscape:connector-curvature="0"
             d="m 0,0 c -0.33,-0.412 -1.319,-1.155 -2.31,-1.155 -2.09,0 -2.53,2.035 -2.53,3.74 0,2.558 1.265,3.657 2.613,3.657 0.824,0 1.732,-0.495 2.227,-0.934 L 0,0 z M 0.29,8.094 C 0.285,8.102 0.265,8.127 0.259,8.134 -0.324,8.95 -1.553,9.652 -3.08,9.652 c -3.025,0 -6.051,-2.474 -6.051,-7.342 0,-3.658 1.843,-6.793 5.803,-6.793 1.224,0 2.785,0.635 3.618,1.39 l 0,-1.033 0.699,0 1.383,0 1.092,0 c 0.385,0 0.66,0.222 0.66,0.661 l 0,2.578 c 0,0.002 0.002,0.004 0.002,0.007 l 0,9.488 c 0,0.439 -0.275,0.66 -0.661,0.66 l -1.092,0 -1.383,0 -0.7,0 0,-1.174 z m -19.789,7.519 c -0.083,0 -0.192,0 -0.303,-0.028 l -2.611,-0.357 -0.66,-0.097 0,-0.672 0,-0.684 0,-15.999 0,-1.155 0,-0.743 0.743,0 0.587,0 2.079,0 c 0.494,0 0.715,0.303 0.715,0.77 l 0,1.538 0,3.539 0,0.282 0,1.897 0,0.3 0,6.076 0,4.618 c 0,0.55 -0.193,0.715 -0.55,0.715 m 9.949,-18.773 -4.069,6.734 3.574,4.948 c 0.109,0.137 0.138,0.275 0.138,0.385 0,0.218 -0.165,0.357 -0.468,0.357 l -2.067,0 -0.901,0 -0.642,0 -1.031,-1.675 c -0.241,-0.385 -0.48,-0.772 -0.718,-1.156 -0.242,-0.39 -0.483,-0.782 -0.726,-1.171 -0.191,-0.309 -0.383,-0.618 -0.574,-0.927 -0.275,-0.442 -0.556,-0.881 -0.833,-1.321 0.318,-0.573 0.641,-1.143 0.96,-1.715 0.21,-0.375 0.419,-0.751 0.628,-1.125 0.246,-0.44 0.491,-0.881 0.736,-1.32 0.204,-0.367 0.409,-0.733 0.614,-1.1 l 1.041,-1.876 0.902,0 0.592,0 2.487,0 c 0.219,0 0.576,0.055 0.576,0.358 0,0.22 -0.111,0.411 -0.219,0.604 m 36.1,10.472 c -0.495,1.127 -1.842,2.337 -3.985,2.337 -1.732,0 -3.546,-0.606 -4.784,-1.842 -0.577,0.935 -1.593,1.842 -3.434,1.842 -1.402,0 -2.832,-0.55 -3.931,-1.485 l -0.055,0.523 c -0.055,0.412 -0.33,0.577 -0.797,0.577 l -1.527,0 -0.728,0 -0.769,0 0,-0.715 0,-1.175 0,-7.895 0,-1.042 0,-1.761 0,-0.798 0.852,0 0.847,0 1.627,0 c 0.55,0 0.797,0.22 0.797,0.798 l 0,2.803 0,5.387 c 0.77,0.687 1.704,1.155 2.612,1.155 1.237,0 1.483,-0.88 1.483,-1.98 l 0,-4.562 0,-0.851 0,-1.952 0,-0.798 0.852,0 1.006,0 1.249,0 c 0.549,0 0.797,0.22 0.797,0.798 l 0,2.803 0,5.387 c 0.741,0.633 1.868,1.155 2.831,1.155 1.236,0 1.484,-0.88 1.484,-1.98 l 0,-4.562 0,-0.06 0,-2.743 0,-0.798 0.852,0 1.683,0 0.791,0 c 0.549,0 0.797,0.22 0.797,0.798 l 0,2.803 0,3.546 c 0,1.951 -0.055,3.188 -0.55,4.287 M 41.46,1.263 c 0,-2.254 0.055,-3.381 0.933,-4.426 0.743,-0.879 1.98,-1.237 3.519,-1.237 1.265,0 2.475,0.248 3.518,0.715 0.303,0.137 0.441,0.275 0.441,0.577 0,0.083 0,0.166 -0.029,0.248 l -0.329,1.759 c -0.055,0.247 -0.165,0.385 -0.385,0.385 -0.11,0 -0.22,-0.028 -0.384,-0.083 -0.551,-0.165 -1.073,-0.329 -1.76,-0.329 -1.209,0 -1.402,0.879 -1.402,2.308 l 0,5.361 2.996,0 c 0.385,0 0.66,0.219 0.66,0.63 l 0,1.595 c 0,0.412 -0.275,0.578 -0.66,0.578 l -2.968,0 0,3.215 c 0,0.496 -0.22,0.716 -0.632,0.716 l -0.165,0 -2.474,-0.33 -0.879,-0.116 0,-11.566 z m 18.571,8.359 c -0.247,0.055 -0.55,0.109 -0.769,0.109 -1.622,0 -2.446,-0.577 -3.436,-1.758 l -0.055,0.824 c -0.028,0.412 -0.275,0.55 -0.796,0.55 l -1.753,0 -0.475,0 -0.796,0 0,-0.797 0,-1.068 0,-2.286 0,-7.233 0,-1.232 0,-0.77 0.769,0 0.817,0 1.767,0 c 0.549,0 0.769,0.275 0.769,0.77 l 0,8.218 c 0.688,0.687 1.621,1.073 2.529,1.073 0.248,0 0.523,-0.029 0.743,-0.083 l 0.054,0 0.082,0 c 0.248,0 0.385,0.137 0.441,0.44 l 0.411,2.583 c 0.029,0.11 0.029,0.165 0.029,0.247 l 0,0.056 C 60.333,9.457 60.251,9.566 60.031,9.622 M 37.147,3.537 34.315,4.659 c -0.952,0.365 -1.065,0.728 -1.065,1.065 0,0.393 0.421,0.897 1.346,0.897 0.897,0 2.047,-0.281 3.112,-0.673 0.002,-0.001 0.006,-0.002 0.009,-0.003 l 0,10e-4 C 37.739,5.939 37.76,5.931 37.781,5.924 37.81,5.915 37.838,5.905 37.867,5.895 37.894,5.887 37.923,5.877 37.95,5.868 37.977,5.859 38.003,5.851 38.029,5.843 38.052,5.836 38.076,5.828 38.1,5.821 38.119,5.815 38.139,5.809 38.159,5.804 38.173,5.8 38.188,5.796 38.202,5.793 38.22,5.79 38.238,5.785 38.256,5.783 c 0.02,-0.002 0.04,-0.004 0.06,-0.004 0.01,-0.001 0.02,0 0.03,0 0.02,0.001 0.039,0.003 0.058,0.006 0.023,0.003 0.047,0.007 0.07,0.015 0.022,0.005 0.042,0.013 0.063,0.023 0.019,0.009 0.038,0.02 0.055,0.032 0.018,0.013 0.034,0.027 0.049,0.042 0.015,0.017 0.029,0.034 0.042,0.053 0.014,0.018 0.026,0.04 0.036,0.06 0.011,0.024 0.022,0.047 0.03,0.072 0.01,0.027 0.018,0.054 0.024,0.083 0.006,0.022 0.011,0.044 0.014,0.067 0,0 0.025,0.153 0.031,0.193 l 0.274,1.709 c 0.025,0.126 0.045,0.281 0.045,0.365 0,0.224 -0.139,0.365 -0.392,0.476 -1.486,0.674 -2.943,0.898 -4.401,0.898 -2.496,0 -5.355,-1.205 -5.355,-4.206 0,-2.019 1.346,-3.364 2.859,-3.925 l 2.496,-0.924 c 1.036,-0.393 1.317,-0.674 1.317,-1.206 0,-0.617 -0.616,-0.981 -1.514,-0.981 -0.984,0 -2.261,0.293 -3.597,0.827 -0.001,0.001 -0.002,0.001 -0.003,0.001 l 0,0 c -0.023,0.009 -0.047,0.017 -0.07,0.026 -0.027,0.009 -0.053,0.018 -0.079,0.027 -0.029,0.009 -0.056,0.019 -0.084,0.028 -0.029,0.01 -0.057,0.02 -0.086,0.03 -0.028,0.008 -0.056,0.018 -0.083,0.027 -0.027,0.009 -0.053,0.017 -0.079,0.025 -0.024,0.008 -0.047,0.015 -0.071,0.022 -0.02,0.006 -0.039,0.011 -0.059,0.017 -0.014,0.004 -0.029,0.009 -0.044,0.011 -0.017,0.003 -0.035,0.007 -0.053,0.01 -0.02,0.002 -0.041,0.004 -0.06,0.004 -0.01,0 -0.021,0 -0.031,0 C 29.729,-0.315 29.71,-0.316 29.691,-0.32 29.667,-0.323 29.644,-0.328 29.621,-0.334 29.6,-0.34 29.579,-0.348 29.558,-0.357 29.539,-0.367 29.52,-0.378 29.502,-0.39 c -0.016,-0.012 -0.033,-0.027 -0.048,-0.041 -0.016,-0.017 -0.03,-0.034 -0.043,-0.053 -0.013,-0.019 -0.025,-0.04 -0.035,-0.061 -0.012,-0.023 -0.022,-0.048 -0.03,-0.072 -0.01,-0.027 -0.018,-0.055 -0.025,-0.082 -0.005,-0.023 -0.01,-0.045 -0.014,-0.067 0,0 -0.121,-0.759 -0.195,-1.221 l 0,-10e-4 -0.108,-0.677 c -0.027,-0.113 -0.044,-0.218 -0.044,-0.329 0,-0.198 0.085,-0.394 0.393,-0.506 1.542,-0.645 3.196,-1.037 4.682,-1.037 2.775,0 5.636,1.233 5.636,4.457 0,1.879 -1.094,3.057 -2.524,3.617 m 36.732,5.814 -2.118,0 -0.356,0 -0.853,0 0,-0.715 0,-1.346 0,-6.932 c -0.77,-0.66 -1.898,-1.073 -2.805,-1.073 -1.238,0 -1.568,0.798 -1.568,1.926 l 0,7.425 c 0,0.577 -0.275,0.715 -0.797,0.715 l -1.398,0 -1.078,0 -0.851,0 0,-0.715 0,-1.585 0,-6.583 c 0,-2.97 1.347,-4.895 4.344,-4.895 1.623,0 3.136,0.522 4.401,1.512 l 0,-1.127 0.796,0 1.459,0 0.769,0 c 0.661,0 0.853,0.22 0.853,0.907 l 0,11.771 c 0,0.577 -0.275,0.715 -0.798,0.715 m 11.349,-9.569 c -0.357,-0.495 -1.044,-0.907 -1.842,-0.907 -0.797,0 -1.676,0.412 -2.17,0.88 l 0,5.607 c 0.438,0.467 1.456,0.989 2.253,0.989 0.742,0 1.457,-0.275 1.924,-0.989 0.386,-0.577 0.632,-1.485 0.632,-2.721 0,-1.266 -0.246,-2.117 -0.797,-2.859 m 3.326,8.246 c -0.88,0.934 -2.116,1.677 -4.012,1.677 -1.431,0 -2.915,-0.687 -3.629,-1.484 L 80.858,8.77 c -0.055,0.44 -0.33,0.578 -0.852,0.578 l -1.518,0 -0.598,0 -0.798,0 0,-0.77 0,-1.814 0,-14.442 0,-1.5 0,-0.824 0.769,0 1.06,0 1.442,0 c 0.55,0 0.853,0.219 0.853,0.852 l 0,5.798 c 0.741,-0.686 1.868,-1.098 3.077,-1.098 1.787,0 3.244,0.714 4.261,1.924 1.154,1.347 1.759,3.271 1.759,5.414 0,1.897 -0.55,3.876 -1.759,5.14"
             style="fill:#e20039;fill-opacity:1;fill-rule:evenodd;stroke:none"
             id="path3149" /></g></g></g></g></svg>