<svg id="LEGO_logo" data-name="LEGO logo" xmlns="http://www.w3.org/2000/svg" viewBox="0 0 141.732 141.733"><title>LEGO_logo</title><path d="M29.308,29.292V169.133h139.84V29.292Z" transform="translate(-28.347 -28.347)" style="fill:#fff"/><path d="M29.308,29.292V169.133h139.84V29.292ZM159.844,87.421a56.138,56.138,0,0,1-2.839,13.412c-4.918,14.611-10.618,23.668-23.822,23.668-3.886,0-10.783-1.033-13.323-7.949l-.6-1.64-1.083,1.372a21.5,21.5,0,0,1-16.831,8.279c-5.039.024-9.086-1.665-11.7-4.883l-.719-.883-.764.844c-2.8,3.088-7.668,4.859-13.364,4.859-4.473,0-8.335-1.52-10.876-4.277l-.693-.754-.72.728c-2.825,2.852-7.276,4.289-12.873,4.157-6.79-.161-10.923-3.95-11.056-10.14-.206-9.543,9.031-29.62,12.853-35.725,2.483-4.078,5.9-6.055,10.438-6.055,3.093,0,5.207.647,6.463,1.977,1.143,1.21,1.37,2.232,1.471,4.686l.131,3.175,1.675-2.7c4.055-6.533,10.774-7.434,17.431-7.434,4.628,0,8.667,1.7,10.289,4.337l.6.97.869-.737a20.95,20.95,0,0,1,13.628-4.522c5.847,0,10.1,1.454,12.633,4.321a8.114,8.114,0,0,1,1.488,2.22l.652,1.366.976-1.155c3.71-4.39,8.779-6.615,15.067-6.615,4.98,0,8.761,1.323,11.236,3.933C159.575,79.531,160.018,84.135,159.844,87.421Z" transform="translate(-28.347 -28.347)" style="fill:#ffed00"/><path d="M29.308,29.292V169.133h139.84V29.292ZM163.782,92.786c-.633,5.088-4.073,14.517-5.9,18.285-4.9,10.1-11.453,17.863-24.074,17.863-6.742,0-12.288-2.15-15.531-6.283a25.382,25.382,0,0,1-16.955,6.342,19.813,19.813,0,0,1-12.472-4.013A24.237,24.237,0,0,1,74.9,128.961a20,20,0,0,1-11.8-3.542c-3.529,2.342-8.154,3.5-13.583,3.375-9.034-.213-15.27-5.943-15.449-14.26-.238-11.05,9.07-31.276,13.456-38.28a16.286,16.286,0,0,1,14.43-8.294c6.664,0,9.079,1.905,10.267,4.328,5.14-4.367,11.956-4.617,16.808-4.617,5.356,0,8.715,1.421,11.575,3.7a26.223,26.223,0,0,1,13.871-3.6c6.9,0,12.02,1.6,15.594,5.137,4.169-3.468,9.387-5.05,15.232-5.05,7.724,0,12.807,2.787,15.792,6.94C165.309,80.653,164.557,86.552,163.782,92.786Z" transform="translate(-28.347 -28.347)" style="fill:#e3000b"/><path d="M28.347,28.347V170.08H170.079V28.347ZM168.128,30.3V168.128H30.3V30.3Z" transform="translate(-28.347 -28.347)" style="fill:#181716"/><path d="M163.1,70.875v-.964h.656c.479,0,.726.168.726.477,0,.247-.16.486-.646.486Zm2.351,2-.408-.707c-.356-.619-.453-.716-.755-.823v-.018a.974.974,0,0,0,.95-.985c0-.558-.355-.983-1.109-.983h-1.753v3.517h.725V71.435h.133c.311,0,.435.036.577.177a3.128,3.128,0,0,1,.478.69l.284.575Zm-1.731-4.5A2.729,2.729,0,1,1,161,71.106,2.731,2.731,0,0,1,163.718,68.38Zm0-.671a3.395,3.395,0,1,0,3.4,3.4A3.388,3.388,0,0,0,163.718,67.709Z" transform="translate(-28.347 -28.347)" style="fill:#181716"/><path d="M145.235,71.348c-7.325,0-12.385,2.9-15.812,6.961a9.069,9.069,0,0,0-1.637-2.447c-2.8-3.171-7.314-4.651-13.365-4.651a21.8,21.8,0,0,0-14.261,4.754c-1.779-2.888-6.014-4.8-11.122-4.8-6.674,0-13.947.944-18.261,7.9-.1-2.5-.33-3.827-1.737-5.317-1.71-1.811-4.477-2.283-7.174-2.283-4.912,0-8.606,2.145-11.266,6.514-3.859,6.165-13.212,26.442-13,36.263.136,6.344,4.393,10.917,12.01,11.095,5.952.143,10.62-1.447,13.59-4.445,2.665,2.894,6.731,4.592,11.595,4.592,5.417,0,10.869-1.626,14.088-5.182,2.712,3.334,6.981,5.27,12.468,5.244a22.476,22.476,0,0,0,17.593-8.65c2.258,6.148,7.987,8.588,14.241,8.588,13.709,0,19.731-9.426,24.748-24.333a57.054,57.054,0,0,0,2.889-13.671C161.236,79.639,157.92,71.348,145.235,71.348ZM54.019,108.822c7.093-1.231,8.877,1.333,8.653,3.707-.669,7.109-7.191,8.7-12.853,8.566-4.107-.1-7.8-1.978-7.9-6.747-.179-8.342,8.328-27.64,12.334-34.038,1.849-3.036,4.1-4.538,7.7-4.538,3.406,0,4.25,1.749,4.2,3.843C66.011,85.2,56.981,102.187,54.019,108.822Zm23.1-6.552c-.469,1.27-1.358,3.93-2.076,6.751a23.071,23.071,0,0,1,7.065-.915c3.408.084,5.586,1.5,5.586,4.314,0,6.831-7.551,8.838-12.788,8.838-5.752,0-10.8-3.275-10.8-9.564,0-7.373,4-18.554,7.749-26,4.606-9.145,9.312-10.362,17.418-10.362,3.564,0,7.668,1.524,7.668,4.885,0,4.663-3.95,6.443-7.866,6.666a55.2,55.2,0,0,1-5.786.079,32.846,32.846,0,0,0-2.689,5.524c7.252-1.02,10.327.626,9.1,4.82C88.041,102.973,83.13,103.346,77.116,102.27Zm35.669-17.631a5.163,5.163,0,0,0-4.2,2.584c-2.1,2.951-6.656,14.78-7.365,19.638-.486,3.329.951,4.007,2.522,4.007,2.519,0,5.344-2.666,6.308-7.066,0,0-4.8-.116-3.473-4.369,1.285-4.128,3.721-5.022,7.762-5.188,7.961-.325,7.175,5.554,6.538,8.688-2.069,10.179-9.313,18.357-19.561,18.357-7.017,0-11.372-3.881-11.372-11.037,0-5.1,2.529-13.1,4.534-17.783,4.268-9.968,8.742-16.945,20.143-16.945,6.84,0,12.236,2.457,11.445,8.866-.581,4.7-2.935,7.465-7.211,7.8-1.2.094-6.089-.03-4.466-4.659C114.958,85.912,115.19,84.639,112.785,84.639Zm43.057,8.414a68.837,68.837,0,0,1-6.86,18.392c-4.8,8.634-10.632,9.842-15.723,9.782s-10.83-1.941-10.874-9.8c-.031-5.639,2.4-13.6,4.466-18.816,3.6-9.457,7.277-17.169,18.9-17.031C159.315,75.745,156.9,87.8,155.842,93.052Zm-9.668-5.912c-.144,3.621-5.452,18.1-7.338,21.3-.817,1.385-1.738,2.53-3.4,2.53a2.054,2.054,0,0,1-2.132-2.2c-.105-3.267,5.891-19.652,7.942-22.31a3.185,3.185,0,0,1,3.091-1.619C146.041,84.857,146.216,86.085,146.174,87.14Z" transform="translate(-28.347 -28.347)" style="fill:#181716"/></svg>