<svg width="295" height="25" viewBox="0 0 295 25" fill="none" xmlns="http://www.w3.org/2000/svg">
<path d="M7.92413 24.1144C5.22304 24.1144 3.22857 23.4663 1.93674 22.1682C0.644918 20.87 0 18.8639 0 16.1516V7.93883C0 5.20057 0.648899 3.19038 1.94471 1.90426C3.2425 0.618136 5.23498 -0.0119238 7.92413 0.0100783H12.1698C14.8829 0.0100783 16.8813 0.656139 18.1652 1.94826C19.451 3.24038 20.094 5.24857 20.094 7.97283V16.1496C20.094 18.8639 19.451 20.868 18.1652 22.1662C16.8793 23.4643 14.8809 24.1124 12.1698 24.1124H7.92413V24.1144ZM7.92413 21.1281H12.1698C13.4318 21.1281 14.4211 20.9761 15.1416 20.674C15.8602 20.372 16.3718 19.86 16.6723 19.1359C16.9729 18.4138 17.1242 17.4177 17.1242 16.1496V7.97283C17.1242 6.71671 16.9729 5.72862 16.6723 5.00455C16.3718 4.28248 15.8622 3.76643 15.1416 3.4584C14.4231 3.15037 13.4318 2.99636 12.1698 2.99636H7.92413C6.6741 2.98436 5.68881 3.12637 4.97025 3.4224C4.25168 3.71843 3.73814 4.22848 3.4316 4.95054C3.12507 5.67261 2.9718 6.66871 2.9718 7.93683V16.1496C2.9718 17.4177 3.12307 18.4138 3.42364 19.1359C3.7242 19.858 4.23377 20.372 4.95432 20.674C5.67289 20.9761 6.66415 21.1281 7.92612 21.1281H7.92413Z" fill="#02081D"/>
<path d="M26.7561 24.1144C25.7649 24.1144 25.2712 23.6163 25.2712 22.6222V1.50423C25.2712 0.508132 25.7669 0.012085 26.7561 0.012085C27.2637 0.012085 27.7574 0.308113 28.241 0.900169L42.4631 19.3159H41.7206V1.50423C41.7206 0.508132 42.2163 0.012085 43.2055 0.012085C44.1948 0.012085 44.6904 0.510132 44.6904 1.50423V22.6202C44.6904 23.6143 44.1948 24.1124 43.2055 24.1124C42.6741 24.1124 42.1804 23.8163 41.7206 23.2243L27.4986 4.81054H28.241V22.6202C28.241 23.6143 27.7454 24.1124 26.7561 24.1124V24.1144Z" fill="#02081D"/>
<path d="M51.3526 24.1144C50.3613 24.1144 49.8677 23.6163 49.8677 22.6222V1.50423C49.8677 0.508132 50.3633 0.012085 51.3526 0.012085C52.3418 0.012085 52.8375 0.510132 52.8375 1.50423V21.1281H62.6367C63.6279 21.1281 64.1216 21.6261 64.1216 22.6222C64.1216 23.6183 63.6259 24.1144 62.6367 24.1144H51.3506H51.3526Z" fill="#02081D"/>
<path d="M70.5966 24.1143C70.089 24.1143 69.7148 23.9923 69.474 23.7502C69.2311 23.5082 69.1117 23.1322 69.1117 22.6221V1.50415C69.1117 0.982102 69.2331 0.604066 69.474 0.366043C69.7148 0.130021 70.089 0.0100098 70.5966 0.0100098C71.1042 0.0100098 71.4923 0.128021 71.7292 0.366043C71.9661 0.604066 72.0835 0.982102 72.0835 1.50415V22.6221C72.0835 23.1322 71.9661 23.5082 71.7292 23.7502C71.4923 23.9943 71.1161 24.1143 70.5966 24.1143Z" fill="#02081D"/>
<path d="M78.7437 24.1144C77.7524 24.1144 77.2588 23.6163 77.2588 22.6222V1.50423C77.2588 0.508132 77.7544 0.012085 78.7437 0.012085C79.2513 0.012085 79.7449 0.308113 80.2286 0.900169L94.4506 19.3159H93.7082V1.50423C93.7082 0.508132 94.2038 0.012085 95.1931 0.012085C96.1823 0.012085 96.678 0.510132 96.678 1.50423V22.6202C96.678 23.6143 96.1823 24.1124 95.1931 24.1124C94.6616 24.1124 94.168 23.8163 93.7082 23.2243L79.4861 4.80854H80.2286V22.6182C80.2286 23.6123 79.733 24.1104 78.7437 24.1104V24.1144Z" fill="#02081D"/>
<path d="M103.37 24.1144C102.379 24.1144 101.883 23.6163 101.883 22.6222V1.50423C101.883 0.508132 102.379 0.012085 103.37 0.012085H116.071C117.063 0.012085 117.558 0.510132 117.558 1.50423C117.558 2.49832 117.063 2.99837 116.071 2.99837H104.857V10.4631H111.897C112.888 10.4631 113.382 10.9611 113.382 11.9572C113.382 12.9533 112.886 13.4494 111.897 13.4494H104.857V21.1281H116.071C117.063 21.1281 117.558 21.6261 117.558 22.6222C117.558 23.6183 117.063 24.1144 116.071 24.1144H103.37Z" fill="#02081D"/>
<path d="M130.457 24.1143C127.756 24.1143 125.761 23.4662 124.469 22.1681C123.177 20.87 122.532 18.8658 122.532 16.1515V7.97476C122.532 5.2365 123.175 3.22031 124.459 1.92219C125.745 0.624065 127.732 -0.0119951 130.421 0.0120071H134.702C136.92 0.0120071 138.612 0.472051 139.78 1.39014C140.948 2.30822 141.625 3.75636 141.814 5.73655C141.886 6.23459 141.79 6.61263 141.532 6.87466C141.271 7.13468 140.895 7.26669 140.399 7.26669C139.503 7.26669 138.984 6.76865 138.843 5.77255C138.725 4.68245 138.351 3.94838 137.72 3.56834C137.089 3.18831 136.084 3.00029 134.704 3.00029H130.423C129.173 2.98829 128.191 3.1303 127.477 3.42633C126.762 3.72236 126.257 4.23441 125.956 4.96247C125.656 5.69254 125.504 6.69664 125.504 7.97476V16.1515C125.504 17.4197 125.654 18.4157 125.956 19.1378C126.257 19.8599 126.766 20.3739 127.487 20.676C128.205 20.978 129.197 21.13 130.459 21.13H134.704C136.084 21.13 137.089 20.938 137.72 20.5519C138.351 20.1659 138.725 19.4358 138.843 18.3577C138.984 17.3616 139.503 16.8636 140.399 16.8636C140.895 16.8636 141.271 16.9936 141.532 17.2556C141.79 17.5157 141.886 17.8957 141.814 18.3937C141.625 20.3839 140.948 21.8361 139.78 22.7482C138.612 23.6602 136.92 24.1163 134.702 24.1163H130.457V24.1143Z" fill="#02081D"/>
<path d="M148.496 24.1063C147.989 24.1063 147.615 23.9843 147.374 23.7422C147.131 23.5002 147.011 23.1242 147.011 22.6141V1.49414C147.011 0.972092 147.133 0.594056 147.374 0.356034C147.615 0.120011 147.989 0 148.496 0C149.004 0 149.392 0.118011 149.629 0.356034C149.866 0.594056 149.983 0.972092 149.983 1.49414V22.6121C149.983 23.1222 149.866 23.4982 149.629 23.7402C149.392 23.9843 149.016 24.1043 148.496 24.1043V24.1063Z" fill="#02081D"/>
<path d="M164.993 24.1143C164.498 24.1143 164.125 23.9903 163.879 23.7403C163.632 23.4923 163.506 23.1182 163.506 22.6202V3.03235H156.643C156.148 3.03235 155.775 2.90834 155.528 2.65831C155.282 2.41029 155.156 2.03626 155.156 1.53821C155.156 1.04016 155.28 0.668126 155.528 0.418103C155.775 0.170079 156.148 0.0440674 156.643 0.0440674H173.341C173.837 0.0440674 174.209 0.168079 174.456 0.418103C174.703 0.666126 174.828 1.04016 174.828 1.53821C174.828 2.03626 174.705 2.41029 174.456 2.65831C174.209 2.90634 173.837 3.03235 173.341 3.03235H166.478V22.6202C166.478 23.0942 166.351 23.4603 166.098 23.7223C165.843 23.9823 165.475 24.1123 164.993 24.1123V24.1143Z" fill="#02081D"/>
<path d="M187.671 24.1144C186.68 24.1144 186.184 23.6163 186.184 22.6222V15.3855L178.083 2.4103C177.587 1.55622 177.741 0.858158 178.543 0.312106C179.393 -0.209943 180.075 -0.0559285 180.595 0.77415L187.671 12.1852L195.1 0.77415C195.346 0.384113 195.647 0.150091 196.001 0.0720837C196.356 -0.00392353 196.726 0.0980861 197.116 0.384113C197.976 0.918164 198.129 1.59223 197.576 2.4103L189.156 15.3855V22.6222C189.156 23.6163 188.66 24.1144 187.671 24.1144Z" fill="#02081D"/>
<path d="M197.95 24.1144C197.007 24.1144 196.535 23.6403 196.535 22.6922V21.8021C196.535 20.8781 197.007 20.416 197.95 20.416H198.8C199.696 20.416 200.144 20.8781 200.144 21.8021V22.6922C200.144 23.6403 199.696 24.1144 198.8 24.1144H197.95Z" fill="#02081D"/>
<path d="M209.005 24.1063C208.498 24.1063 208.124 23.9843 207.883 23.7422C207.64 23.5002 207.521 23.1242 207.521 22.6141V1.49414C207.521 0.972092 207.642 0.594056 207.883 0.356034C208.124 0.120011 208.498 0 209.005 0C209.513 0 209.901 0.118011 210.138 0.356034C210.375 0.594056 210.492 0.972092 210.492 1.49414V22.6121C210.492 23.1222 210.375 23.4982 210.138 23.7402C209.901 23.9843 209.525 24.1043 209.005 24.1043V24.1063Z" fill="#02081D"/>
<path d="M223.56 24.1143C220.859 24.1143 218.864 23.4662 217.572 22.1681C216.28 20.87 215.635 18.8658 215.635 16.1515V7.93876C215.635 5.2025 216.284 3.19031 217.58 1.90419C218.878 0.61807 220.87 -0.0119891 223.56 0.0120131H227.805C230.518 0.0120131 232.517 0.658074 233.803 1.9502C235.089 3.24232 235.731 5.25051 235.731 7.97477V16.1515C235.731 18.8658 235.089 20.87 233.803 22.1681C232.517 23.4662 230.518 24.1143 227.805 24.1143H223.56ZM223.56 21.128H227.805C229.067 21.128 230.057 20.976 230.777 20.674C231.496 20.3719 232.007 19.8599 232.308 19.1358C232.608 18.4138 232.758 17.4177 232.758 16.1495V7.97277C232.758 6.71665 232.608 5.72855 232.308 5.00448C232.007 4.28242 231.498 3.76637 230.777 3.45834C230.059 3.15031 229.067 2.9963 227.805 2.9963H223.56C222.31 2.98429 221.324 3.12631 220.606 3.42234C219.887 3.71836 219.374 4.22841 219.067 4.95048C218.761 5.67255 218.607 6.66864 218.607 7.93676V16.1495C218.607 17.4177 218.757 18.4138 219.059 19.1358C219.36 19.8579 219.869 20.3719 220.59 20.674C221.308 20.976 222.3 21.128 223.562 21.128H223.56Z" fill="#02081D"/>
<path d="M257.103 0.463867H293.055C293.828 0.464086 294.458 1.09442 294.458 1.87402V16.9834C294.458 20.3478 291.732 23.0849 288.389 23.085H257.103C253.758 23.085 251.034 20.3479 251.034 16.9834V6.5625C251.034 3.19827 253.758 0.463867 257.103 0.463867Z" fill="url(#paint0_linear_4431_254)" stroke="url(#paint1_linear_4431_254)" stroke-width="0.927395"/>
<g filter="url(#filter0_d_4431_254)">
<path d="M267.415 7.24121C266.088 7.24121 265.011 7.85115 265.011 8.60707V15.4184C265.011 16.1723 266.088 16.7823 267.415 16.7823C268.742 16.7823 269.819 16.1723 269.819 15.4184V8.60707C269.819 7.85115 268.742 7.24121 267.415 7.24121ZM268.617 14.9824C268.617 15.1864 268.489 15.3664 268.298 15.4344C268.086 15.5104 267.789 15.5744 267.415 15.5744C267.041 15.5744 266.742 15.5104 266.531 15.4344C266.34 15.3644 266.213 15.1864 266.213 14.9824V9.04303C266.213 8.83905 266.34 8.65907 266.531 8.58908C266.742 8.51308 267.039 8.44909 267.415 8.44909C267.791 8.44909 268.086 8.51308 268.298 8.58908C268.489 8.65707 268.617 8.83705 268.617 9.04103V14.9824Z" fill="#A1FFFA"/>
</g>
<g filter="url(#filter1_d_4431_254)">
<path d="M278.948 7.24121C277.621 7.24121 276.544 7.85115 276.544 8.60707V15.4184C276.544 16.1723 277.621 16.7823 278.948 16.7823C280.275 16.7823 281.352 16.1723 281.352 15.4184V8.60707C281.352 7.85115 280.275 7.24121 278.948 7.24121ZM280.15 14.9824C280.15 15.1864 280.023 15.3664 279.832 15.4344C279.619 15.5104 279.322 15.5744 278.948 15.5744C278.574 15.5744 278.275 15.5104 278.064 15.4344C277.873 15.3644 277.746 15.1864 277.746 14.9824V9.04303C277.746 8.83905 277.873 8.65907 278.064 8.58908C278.275 8.51308 278.572 8.44909 278.948 8.44909C279.324 8.44909 279.619 8.51308 279.832 8.58908C280.023 8.65707 280.15 8.83705 280.15 9.04103V14.9824Z" fill="#A1FFFA"/>
</g>
<defs>
<filter id="filter0_d_4431_254" x="260.56" y="2.78971" width="13.7106" height="18.444" filterUnits="userSpaceOnUse" color-interpolation-filters="sRGB">
<feFlood flood-opacity="0" result="BackgroundImageFix"/>
<feColorMatrix in="SourceAlpha" type="matrix" values="0 0 0 0 0 0 0 0 0 0 0 0 0 0 0 0 0 0 127 0" result="hardAlpha"/>
<feOffset/>
<feGaussianBlur stdDeviation="2.22575"/>
<feComposite in2="hardAlpha" operator="out"/>
<feColorMatrix type="matrix" values="0 0 0 0 0.294118 0 0 0 0 0.831373 0 0 0 0 1 0 0 0 0.5 0"/>
<feBlend mode="normal" in2="BackgroundImageFix" result="effect1_dropShadow_4431_254"/>
<feBlend mode="normal" in="SourceGraphic" in2="effect1_dropShadow_4431_254" result="shape"/>
</filter>
<filter id="filter1_d_4431_254" x="272.093" y="2.78971" width="13.7106" height="18.444" filterUnits="userSpaceOnUse" color-interpolation-filters="sRGB">
<feFlood flood-opacity="0" result="BackgroundImageFix"/>
<feColorMatrix in="SourceAlpha" type="matrix" values="0 0 0 0 0 0 0 0 0 0 0 0 0 0 0 0 0 0 127 0" result="hardAlpha"/>
<feOffset/>
<feGaussianBlur stdDeviation="2.22575"/>
<feComposite in2="hardAlpha" operator="out"/>
<feColorMatrix type="matrix" values="0 0 0 0 0.294118 0 0 0 0 0.831373 0 0 0 0 1 0 0 0 0.5 0"/>
<feBlend mode="normal" in2="BackgroundImageFix" result="effect1_dropShadow_4431_254"/>
<feBlend mode="normal" in="SourceGraphic" in2="effect1_dropShadow_4431_254" result="shape"/>
</filter>
<linearGradient id="paint0_linear_4431_254" x1="272.746" y1="0" x2="272.746" y2="23.5482" gradientUnits="userSpaceOnUse">
<stop stop-color="#02081D"/>
<stop offset="1" stop-color="#17234E"/>
</linearGradient>
<linearGradient id="paint1_linear_4431_254" x1="246.732" y1="23.2187" x2="309.434" y2="-4.10084" gradientUnits="userSpaceOnUse">
<stop stop-color="#12C2E9"/>
<stop offset="0.5" stop-color="#C471ED"/>
<stop offset="1" stop-color="#F64F59"/>
</linearGradient>
</defs>
</svg>
