<?xml version="1.0" encoding="UTF-8"?>
<svg version="1.1" xmlns="http://www.w3.org/2000/svg" width="1564" height="225">
<path d="M0 0 C516.12 0 1032.24 0 1564 0 C1564 74.25 1564 148.5 1564 225 C1047.88 225 531.76 225 0 225 C0 150.75 0 76.5 0 0 Z " fill="#FEFEFE" transform="translate(0,0)"/>
<path d="M0 0 C1.25746284 -0.01007584 1.25746284 -0.01007584 2.54032898 -0.02035522 C5.3022562 -0.0392961 8.06393965 -0.04325821 10.82592773 -0.04541016 C12.75919187 -0.0518435 14.69245504 -0.05857226 16.62571716 -0.06558228 C20.6782354 -0.07754724 24.73066847 -0.08126417 28.78320312 -0.08007812 C33.94531758 -0.07987561 39.10687736 -0.10711181 44.26886082 -0.14162254 C48.26434269 -0.16400245 52.25969376 -0.1679122 56.25523186 -0.16685867 C58.15640094 -0.16920051 60.05757442 -0.17794298 61.95868111 -0.19352341 C74.96576856 -0.29009541 88.27666794 -0.26250313 98.86108398 8.51318359 C103.73945254 13.98032077 105.562135 21.30472709 105.59228516 28.46704102 C105.59866501 29.49878952 105.60504486 30.53053802 105.61161804 31.59355164 C105.61328728 33.25919914 105.61328728 33.25919914 105.61499023 34.95849609 C105.61831863 36.10788162 105.62164703 37.25726715 105.62507629 38.44148254 C105.63013928 40.87496541 105.63248481 43.30845523 105.63232422 45.74194336 C105.63450289 49.44640726 105.652644 53.15056956 105.67163086 56.85498047 C105.67456655 59.222818 105.67655017 61.59065693 105.67749023 63.95849609 C105.68467575 65.05880661 105.69186127 66.15911713 105.69926453 67.29277039 C105.66916221 77.54179539 104.67521778 86.51794807 97.44702148 94.29052734 C85.92131577 103.09914654 68.65701589 102.74879006 54.77514648 102.65380859 C53.23492432 102.65328763 51.6947015 102.65381442 50.15447998 102.65531921 C46.95778212 102.65523047 43.7613416 102.64499995 40.56469727 102.62670898 C36.50147468 102.60394783 32.43862372 102.60350249 28.37535477 102.61022663 C25.20602203 102.61359232 22.03677156 102.60688924 18.86745453 102.5970974 C17.37019025 102.5932956 15.87291675 102.59207588 14.3756485 102.59368324 C0.24089952 102.59622356 -12.99190887 102.1766051 -24.42797852 92.97802734 C-31.81622786 83.63406494 -32.86153377 73.00825509 -32.88891602 61.41943359 C-32.89557281 60.41645737 -32.90222961 59.41348114 -32.90908813 58.38011169 C-32.91914665 56.27336442 -32.92390728 54.16658572 -32.92358398 52.05981445 C-32.92796253 48.86469418 -32.96437063 45.67095151 -33.00219727 42.47607422 C-33.00806607 40.415532 -33.01203504 38.35498331 -33.01391602 36.29443359 C-33.02828705 35.35451065 -33.04265808 34.41458771 -33.0574646 33.44618225 C-32.99103238 23.64460347 -30.26265498 15.10055788 -23.41235352 7.94287109 C-16.57936542 1.8706989 -8.97519208 -0.0104177 0 0 Z " fill="#020202" transform="translate(530.552978515625,47.70947265625)"/>
<path d="M0 0 C24.7190625 -0.061875 24.7190625 -0.061875 49.9375 -0.125 C55.12847412 -0.14320801 60.31944824 -0.16141602 65.66772461 -0.18017578 C72.03820801 -0.18920898 72.03820801 -0.18920898 75.02662659 -0.19088745 C77.10040649 -0.19394558 79.17418298 -0.20095256 81.24794006 -0.21115112 C84.40095131 -0.22587354 87.55374644 -0.2278092 90.70678711 -0.22705078 C92.07751956 -0.23784511 92.07751956 -0.23784511 93.47594357 -0.2488575 C103.24750953 -0.21757074 110.74647956 1.17412475 118 8 C124.89172084 15.79852622 124.1989554 26.40730565 124.3125 36.25 C124.33022461 37.19681641 124.34794922 38.14363281 124.36621094 39.11914062 C124.35783164 47.04595347 122.7965502 53.2034498 117 59 C114.40979094 60.52131281 111.7537863 61.80357343 109 63 C110.546875 63.5259375 110.546875 63.5259375 112.125 64.0625 C117.43559018 66.3461615 120.72150234 70.29233996 123.16015625 75.45703125 C124.4168928 80.75870588 124.207431 85.94987309 124.125 91.375 C124.08375 95.21125 124.0425 99.0475 124 103 C113.77 103 103.54 103 93 103 C92.6875 93.8125 92.6875 93.8125 92.61206055 90.94458008 C92.34095599 84.44254115 92.34095599 84.44254115 89 79 C83.25210489 76.32911114 77.2482821 76.65075992 71.0390625 76.5859375 C69.89335785 76.56657135 68.7476532 76.5472052 67.56723022 76.5272522 C63.91989509 76.46763215 60.2725281 76.42114082 56.625 76.375 C54.14712191 76.3368041 51.66925686 76.29775143 49.19140625 76.2578125 C43.12767334 76.16033789 37.06407385 76.08062799 31 76 C31 84.91 31 93.82 31 103 C20.77 103 10.54 103 0 103 C0 69.01 0 35.02 0 0 Z " fill="#040404" transform="translate(1063,47)"/>
<path d="M0 0 C24.62625 -0.12375 24.62625 -0.12375 49.75 -0.25 C54.91366211 -0.28641602 60.07732422 -0.32283203 65.39746094 -0.36035156 C71.75439453 -0.37841797 71.75439453 -0.37841797 74.74029541 -0.3817749 C76.80396993 -0.38787485 78.86763115 -0.40185436 80.93121338 -0.42230225 C106.80950707 -0.66567485 106.80950707 -0.66567485 116.5 6.1875 C123.93610833 14.55312187 124.181048 24.75855865 124.25 35.4375 C124.270625 36.23220703 124.29125 37.02691406 124.3125 37.84570312 C124.35818283 44.86372719 123.20777587 51.24028016 118.75 56.8125 C115.62633363 59.29723462 112.52500296 61.13382196 109 63 C109.51949219 63.21914062 110.03898437 63.43828125 110.57421875 63.6640625 C116.78272762 66.48715526 120.61012759 69.35158492 123.125 75.953125 C124.52742699 81.19046442 124.21111636 86.55980035 124.125 91.9375 C124.08375 95.588125 124.0425 99.23875 124 103 C113.77 103 103.54 103 93 103 C92.6875 93.8125 92.6875 93.8125 92.61206055 90.94458008 C92.40810562 86.26949638 92.22042129 82.66118536 89 79 C85.43205887 77.2627158 82.51444148 76.73767697 78.56713867 76.68115234 C77.50641647 76.66128265 76.44569427 76.64141296 75.35282898 76.62094116 C74.2193251 76.60938995 73.08582123 76.59783875 71.91796875 76.5859375 C70.74865311 76.56657135 69.57933746 76.5472052 68.37458801 76.5272522 C64.64563251 76.46754805 60.91664599 76.42110703 57.1875 76.375 C54.6568877 76.33681185 52.12628827 76.29775963 49.59570312 76.2578125 C43.39720303 76.16023034 37.19883758 76.08058701 31 76 C31 84.91 31 93.82 31 103 C20.77 103 10.54 103 0 103 C0 69.01 0 35.02 0 0 Z " fill="#030303" transform="translate(165,47)"/>
<path d="M0 0 C25.84344281 -0.16043524 25.84344281 -0.16043524 36.88476562 -0.1953125 C44.4100273 -0.21919613 51.93509373 -0.24740897 59.46020508 -0.30175781 C65.52915648 -0.345314 71.59789841 -0.36915805 77.66699409 -0.37950897 C79.97898212 -0.38688273 82.29095907 -0.40128192 84.60285759 -0.42292023 C87.84868757 -0.45208331 91.09365907 -0.4559505 94.33959961 -0.45410156 C95.28906967 -0.46848267 96.23853973 -0.48286377 97.21678162 -0.49768066 C104.92443193 -0.45037214 110.9492409 1.41348685 116.875 6.4375 C123.77285935 14.75550687 124.34860519 23.55589015 124.3125 34.0625 C124.33666992 35.47499023 124.33666992 35.47499023 124.36132812 36.91601562 C124.36604081 43.68813874 123.59851901 49.29510875 119.60546875 54.98828125 C116.31383194 58.06228918 113.19573707 60.20182697 109 62 C110.051875 62.37125 111.10375 62.7425 112.1875 63.125 C117.01501414 65.24130418 119.89433865 68.288475 121.86938477 73.13208008 C123.92379134 79.58982417 124.37070759 85.38144756 124.1875 92.125 C124.125625 95.38375 124.06375 98.6425 124 102 C113.44 102 102.88 102 92 102 C91.75 91.75 91.75 91.75 91.70214844 88.53808594 C91.55235032 83.13423741 91.55235032 83.13423741 89.203125 78.390625 C85.50149351 76.0541342 82.09002695 75.86803444 77.77246094 75.79467773 C76.73168396 75.77473251 75.69090698 75.75478729 74.61859131 75.73423767 C73.50179993 75.71752518 72.38500854 75.70081268 71.234375 75.68359375 C69.51157318 75.6524221 69.51157318 75.6524221 67.75396729 75.62062073 C64.08603889 75.55525007 60.41803907 75.49629806 56.75 75.4375 C54.26301346 75.39430293 51.77603413 75.35068825 49.2890625 75.30664062 C43.19278047 75.19879585 37.09644401 75.09962895 31 75 C31 83.91 31 92.82 31 102 C20.77 102 10.54 102 0 102 C0 68.34 0 34.68 0 0 Z " fill="#010101" transform="translate(663,48)"/>
<path d="M0 0 C10.23 0 20.46 0 31 0 C31 33.99 31 67.98 31 103 C14.83 103 -1.34 103 -18 103 C-21.63 98.38 -25.26 93.76 -29 89 C-31.2209817 86.24226117 -33.44499993 83.4898639 -35.6875 80.75 C-36.79586153 79.39086031 -37.9039357 78.03148623 -39.01171875 76.671875 C-39.52911621 76.03701172 -40.04651367 75.40214844 -40.57958984 74.74804688 C-43.02494189 71.73864148 -45.4387261 68.70425104 -47.85546875 65.671875 C-50.0996874 62.8757993 -52.36263472 60.09565058 -54.62792969 57.31665039 C-60.03835231 50.67908119 -65.39479716 44.00537553 -70.66137695 37.25292969 C-72.72484673 34.53516147 -72.72484673 34.53516147 -75 32 C-75.33 55.43 -75.66 78.86 -76 103 C-86.23 103 -96.46 103 -107 103 C-107 69.34 -107 35.68 -107 1 C-90.83 1 -74.66 1 -58 1 C-51.64385515 8.94518106 -45.30536264 16.87460012 -39.03881836 24.88525391 C-35.62318869 29.2405121 -32.13061298 33.52954636 -28.625 37.8125 C-23.50550359 44.07330973 -18.54107649 50.43815057 -13.66455078 56.88989258 C-9.53533393 62.34544351 -5.28024535 67.64969331 -1 73 C-0.67 48.91 -0.34 24.82 0 0 Z " fill="#010101" transform="translate(1475,47)"/>
<path d="M0 0 C1.35444466 0.01061211 1.35444466 0.01061211 2.73625183 0.0214386 C5.61017963 0.04934806 8.48213347 0.11207893 11.35546875 0.17578125 C13.3079145 0.20086863 15.2603909 0.22368103 17.21289062 0.24414062 C21.99033977 0.29916336 26.76632001 0.38541127 31.54296875 0.48828125 C31.54296875 2.48828125 31.54296875 2.48828125 30.21484375 3.828125 C29.26351562 4.61896484 29.26351562 4.61896484 28.29296875 5.42578125 C24.67925524 8.49679926 21.15326309 11.64797058 17.66796875 14.86328125 C13.99979181 18.23958668 10.3187331 21.59893791 6.60546875 24.92578125 C2.13323469 28.93784975 -2.28239797 33.00832603 -6.68432617 37.09716797 C-10.65979225 40.78134112 -14.71442969 44.35997883 -18.84765625 47.8671875 C-20.70796163 49.50112894 -20.70796163 49.50112894 -21.45703125 52.48828125 C-20.89113281 52.73449219 -20.32523438 52.98070312 -19.7421875 53.234375 C-17.06454867 54.70364349 -15.12659513 56.4658056 -12.89453125 58.55078125 C-9.33406197 61.81846598 -5.71770205 64.95307318 -1.95703125 67.98828125 C2.50573088 71.59860567 6.77016408 75.37256054 11.01171875 79.23828125 C13.63141685 81.56690178 16.31812185 83.78391072 19.04296875 85.98828125 C25.84821048 91.50004441 32.36575256 97.28030444 38.54296875 103.48828125 C32.4600399 103.71217161 26.3795498 103.87472254 20.29345703 103.98266602 C18.22727648 104.02769526 16.16137899 104.08894238 14.09619141 104.16723633 C-5.28358742 104.88309972 -5.28358742 104.88309972 -11.52734375 99.234375 C-12.87425338 97.68373499 -14.19029092 96.10507403 -15.45703125 94.48828125 C-17.27523986 92.96998334 -19.10504118 91.46518473 -20.95703125 89.98828125 C-25.40901732 86.38667454 -29.6641854 82.62310383 -33.89453125 78.765625 C-37.56793272 75.50100144 -41.38019662 72.41806141 -45.20703125 69.3359375 C-47.45703125 67.48828125 -47.45703125 67.48828125 -49.45703125 65.48828125 C-54.40703125 65.15828125 -59.35703125 64.82828125 -64.45703125 64.48828125 C-64.45703125 77.35828125 -64.45703125 90.22828125 -64.45703125 103.48828125 C-74.68703125 103.48828125 -84.91703125 103.48828125 -95.45703125 103.48828125 C-95.45703125 69.82828125 -95.45703125 36.16828125 -95.45703125 1.48828125 C-84.89703125 1.48828125 -74.33703125 1.48828125 -63.45703125 1.48828125 C-63.45703125 13.69828125 -63.45703125 25.90828125 -63.45703125 38.48828125 C-49.21231092 38.19463376 -49.21231092 38.19463376 -40.14453125 30.55078125 C-39.48066406 29.87144531 -38.81679688 29.19210938 -38.1328125 28.4921875 C-36.21045431 26.51746936 -34.33435736 24.50566761 -32.45703125 22.48828125 C-30.6410157 20.63666881 -28.79949711 18.81381787 -26.95703125 16.98828125 C-26.19003906 16.21097656 -25.42304687 15.43367188 -24.6328125 14.6328125 C-21.97350152 12.0116963 -19.19666283 9.56358859 -16.34375 7.15625 C-14.30764207 5.45638471 -14.30764207 5.45638471 -12.43017578 2.91455078 C-8.28005152 -0.47220689 -5.19635126 -0.15395684 0 0 Z " fill="#040404" transform="translate(909.45703125,46.51171875)"/>
<path d="M0 0 C10.23 0 20.46 0 31 0 C31.05607422 6.77337891 31.05607422 6.77337891 31.11328125 13.68359375 C31.14358861 16.55928158 31.17475436 19.43490958 31.20898438 22.31054688 C31.26313027 26.86609735 31.31424627 31.42152948 31.34643555 35.97729492 C31.37261308 39.65389949 31.41311483 43.33010235 31.46318626 47.00645638 C31.47975805 48.40288322 31.49133225 49.79937939 31.49761391 51.19589043 C31.28188594 62.52748349 31.28188594 62.52748349 35 73 C40.43214823 77.51945318 45.44498811 77.57915374 52.31640625 77.49609375 C53.77843727 77.4982766 53.77843727 77.4982766 55.27000427 77.50050354 C57.32155358 77.4988502 59.37311602 77.48735257 61.42456055 77.46655273 C64.55636469 77.4375568 67.68647814 77.44596455 70.81835938 77.45898438 C72.81771652 77.45274737 74.81706835 77.44435672 76.81640625 77.43359375 C77.74779922 77.43652939 78.6791922 77.43946503 79.6388092 77.44248962 C84.79050904 77.36805514 88.64130508 77.05054416 93 74 C95.9884031 70.0087212 96.38728882 67.03060327 96.43237305 62.09838867 C96.4425647 61.42466217 96.45275635 60.75093567 96.46325684 60.05679321 C96.49330035 57.84376619 96.50263905 55.63117261 96.51171875 53.41796875 C96.52857194 51.87810335 96.54672305 50.33825165 96.56611633 48.79841614 C96.61355335 44.7559538 96.64340322 40.71354704 96.66955566 36.67089844 C96.70464398 31.81486621 96.76163873 26.95904736 96.81494904 22.10318756 C96.89338921 14.73548565 96.94404981 7.36806163 97 0 C107.23 0 117.46 0 128 0 C128.06793677 10.14487643 128.12290876 20.2896003 128.15543652 30.43465328 C128.17105285 35.14605642 128.19221703 39.85729504 128.22631836 44.56860352 C128.25905618 49.12032742 128.2768833 53.67189366 128.28463173 58.22372627 C128.29014945 59.95515993 128.30092392 61.68658554 128.31719017 63.41795158 C128.42769667 75.67419992 128.28631708 85.60124609 119.37890625 94.984375 C111.28398916 101.84312248 101.94603253 103.10506123 91.64697266 103.16113281 C90.94839645 103.16609772 90.24982025 103.17106262 89.53007507 103.17617798 C87.24139385 103.19066678 84.95278186 103.19757826 82.6640625 103.203125 C81.87633831 103.20595238 81.08861412 103.20877975 80.2770195 103.21169281 C76.11045757 103.22662942 71.94392978 103.23589448 67.77734375 103.24023438 C63.4949405 103.24571904 59.21285515 103.26976273 54.93055153 103.29820633 C51.61722928 103.31690989 48.30398259 103.32204234 44.99061203 103.32357025 C43.41269564 103.32657857 41.83478 103.33454485 40.25691605 103.34775543 C28.64197293 103.43808348 19.34765948 102.74636229 10.01171875 95.0234375 C1.52815067 86.49045058 -0.13439782 74.32199492 -0.11352539 62.77954102 C-0.11367142 62.09576889 -0.11381744 61.41199677 -0.1139679 60.70750427 C-0.11327755 58.47293803 -0.10552677 56.23845772 -0.09765625 54.00390625 C-0.09578895 52.44449407 -0.09436652 50.88508131 -0.09336853 49.32566833 C-0.08956796 45.24043124 -0.07975891 41.15523025 -0.06866455 37.07000732 C-0.05658909 32.15816239 -0.05203647 27.24630533 -0.04621124 22.33444977 C-0.03654565 14.88960815 -0.01737195 7.44484558 0 0 Z " fill="#030303" transform="translate(1214,47)"/>
<path d="M0 0 C1.31250229 -0.00422974 1.31250229 -0.00422974 2.65151978 -0.00854492 C4.1024855 -0.00550858 4.1024855 -0.00550858 5.58276367 -0.00241089 C6.59567474 -0.00416321 7.60858582 -0.00591553 8.65219116 -0.00772095 C12.01838874 -0.01214158 15.38453426 -0.00920073 18.75073242 -0.00582886 C21.07861338 -0.00650184 23.40649428 -0.00747181 25.734375 -0.00872803 C30.62036811 -0.01020529 35.50634299 -0.00804954 40.39233398 -0.00338745 C46.67095898 0.00230985 52.94954124 -0.00096901 59.22816467 -0.00695992 C64.03723475 -0.01056477 68.84629461 -0.00942729 73.65536499 -0.00683212 C75.97114059 -0.00616264 78.28691711 -0.006992 80.60269165 -0.00931168 C83.83305334 -0.01183696 87.06334475 -0.00799935 90.29370117 -0.00241089 C91.26101166 -0.00443512 92.22832214 -0.00645935 93.22494507 -0.00854492 C94.09994659 -0.0057251 94.97494812 -0.00290527 95.87646484 0 C96.64117599 0.00037703 97.40588715 0.00075405 98.19377136 0.0011425 C99.93823242 0.12698364 99.93823242 0.12698364 100.93823242 1.12698364 C100.93823242 9.37698364 100.93823242 17.62698364 100.93823242 26.12698364 C76.51823242 26.12698364 52.09823242 26.12698364 26.93823242 26.12698364 C26.93823242 32.06698364 26.93823242 38.00698364 26.93823242 44.12698364 C50.03823242 44.12698364 73.13823242 44.12698364 96.93823242 44.12698364 C96.93823242 52.04698364 96.93823242 59.96698364 96.93823242 68.12698364 C73.83823242 68.12698364 50.73823242 68.12698364 26.93823242 68.12698364 C26.93823242 79.67698364 26.93823242 91.22698364 26.93823242 103.12698364 C16.37823242 103.12698364 5.81823242 103.12698364 -5.06176758 103.12698364 C-5.08431628 89.84510653 -5.10268131 76.56324202 -5.11357975 63.28135014 C-5.11880916 57.11473444 -5.12590784 50.94813246 -5.13720703 44.78152466 C-5.14803387 38.83582359 -5.15404398 32.89013575 -5.15664482 26.94442558 C-5.15849944 24.67051421 -5.16212075 22.3966036 -5.16749763 20.12269783 C-5.17470536 16.94971244 -5.17575863 13.77678248 -5.17529297 10.60379028 C-5.17888824 9.65361023 -5.18248352 8.70343018 -5.18618774 7.72445679 C-5.17383921 0.00255086 -5.17383921 0.00255086 0 0 Z " fill="#080808" transform="translate(378.061767578125,46.873016357421875)"/>
<path d="M0 0 C38.94 0 77.88 0 118 0 C118 8.58 118 17.16 118 26 C103.48 26 88.96 26 74 26 C74 51.41 74 76.82 74 103 C63.77 103 53.54 103 43 103 C43 77.59 43 52.18 43 26 C28.81 26 14.62 26 0 26 C0 17.42 0 8.84 0 0 Z " fill="#050505" transform="translate(24,47)"/>
<path d="M0 0 C1.68215858 -0.01418472 1.68215858 -0.01418472 3.39830017 -0.02865601 C4.60047684 -0.02258331 5.8026535 -0.01651062 7.04125977 -0.01025391 C8.90706444 -0.01455917 8.90706444 -0.01455917 10.81056213 -0.01895142 C14.11113269 -0.02151302 17.4112779 -0.00946314 20.71179199 0.00732422 C22.72938591 0.01317408 24.74658783 0.00734969 26.76416016 -0.00292969 C30.64837737 -0.021486 34.53201822 -0.01920975 38.41625977 -0.01025391 C39.6164122 -0.0163266 40.81656464 -0.02239929 42.05308533 -0.02865601 C52.48067085 0.05902765 52.48067085 0.05902765 57.29516602 3.38818359 C62.68788151 9.1528105 61.51429215 16.69885712 61.53540039 24.12280273 C61.54508611 26.18368201 61.57612679 28.24355446 61.60766602 30.30419922 C61.66003616 43.63894758 61.66003616 43.63894758 58.29516602 48.38818359 C51.48084875 52.75981104 45.69583416 52.97602978 37.72875977 52.91943359 C36.53589859 52.9232605 35.34303741 52.9270874 34.11402893 52.93103027 C31.60188957 52.93374262 29.08972163 52.92642917 26.57763672 52.90966797 C22.74130128 52.88823184 18.9068346 52.9095047 15.07055664 52.93505859 C12.6232869 52.93241557 10.17601832 52.92729112 7.72875977 52.91943359 C6.58692734 52.92753052 5.44509491 52.93562744 4.2686615 52.94396973 C-2.22538435 52.86778645 -6.56432222 52.52439607 -11.70483398 48.38818359 C-15.93688111 42.23995206 -15.19191601 35.32505454 -15.15087891 28.16601562 C-15.14235618 25.89410125 -15.1711866 23.62469472 -15.20288086 21.35302734 C-15.20449297 19.89599684 -15.20391514 18.43896193 -15.20092773 16.98193359 C-15.20278076 15.66902344 -15.20463379 14.35611328 -15.20654297 13.00341797 C-14.61509099 8.74151001 -13.46156009 6.66616545 -10.70483398 3.38818359 C-7.0321145 0.74487871 -4.5002947 0.01092254 0 0 Z " fill="#FCFCFC" transform="translate(543.704833984375,72.61181640625)"/>
<path d="M0 0 C10.23 0 20.46 0 31 0 C31 33.99 31 67.98 31 103 C20.77 103 10.54 103 0 103 C0 69.01 0 35.02 0 0 Z " fill="#020202" transform="translate(316,47)"/>
<path d="M0 0 C7.88368673 -0.07415556 15.76717043 -0.12860565 23.65112305 -0.16479492 C26.33319554 -0.17818702 29.01505492 -0.19906077 31.69702148 -0.22631836 C35.55198251 -0.26270611 39.40661733 -0.279728 43.26171875 -0.29296875 C45.06040657 -0.31619453 45.06040657 -0.31619453 46.89543152 -0.33988953 C48.01621597 -0.34011612 49.13700043 -0.34034271 50.29174805 -0.34057617 C51.27547897 -0.34723801 52.2592099 -0.35389984 53.27275085 -0.36076355 C56.52748577 0.0697764 58.36595054 1.06506314 61 3 C63.97709357 7.46564036 63.49063212 11.76403532 63 17 C61.69115261 20.37544852 60.96704045 21.52683447 57.73774719 23.10690308 C54.78128016 24.07134991 52.4869669 24.24131939 49.38354492 24.22705078 C48.28278122 24.22689972 47.18201752 24.22674866 46.04789734 24.22659302 C44.28202019 24.21110916 44.28202019 24.21110916 42.48046875 24.1953125 C41.26676102 24.1924826 40.05305328 24.18965271 38.80256653 24.18673706 C34.93077689 24.17555308 31.05921959 24.1504513 27.1875 24.125 C24.56055022 24.11496792 21.93359681 24.10584246 19.30664062 24.09765625 C12.87093248 24.07732226 6.43572596 24.03816905 0 24 C0 16.08 0 8.16 0 0 Z " fill="#FDFDFD" transform="translate(196,73)"/>
<path d="M0 0 C7.88368673 -0.07415556 15.76717043 -0.12860565 23.65112305 -0.16479492 C26.33319554 -0.17818702 29.01505492 -0.19906077 31.69702148 -0.22631836 C35.55198251 -0.26270611 39.40661733 -0.279728 43.26171875 -0.29296875 C45.06040657 -0.31619453 45.06040657 -0.31619453 46.89543152 -0.33988953 C48.01621597 -0.34011612 49.13700043 -0.34034271 50.29174805 -0.34057617 C51.27547897 -0.34723801 52.2592099 -0.35389984 53.27275085 -0.36076355 C56.49995316 0.06613436 58.37086314 1.11362483 61 3 C63.04941724 5.96301288 63.27168929 8.44295646 63.25 12 C63.25773438 13.2684375 63.25773438 13.2684375 63.265625 14.5625 C62.97380753 17.24035441 62.42506923 18.72392003 61 21 C54.62732187 24.81117468 46.90459439 24.39456611 39.74609375 24.29296875 C38.60463394 24.28872391 37.46317413 24.28447906 36.28712463 24.28010559 C32.6703349 24.26342151 29.05411902 24.22578766 25.4375 24.1875 C22.97331538 24.17243992 20.50912197 24.15875384 18.04492188 24.14648438 C12.02955331 24.11611395 6.01541287 24.05737059 0 24 C0 16.08 0 8.16 0 0 Z " fill="#FEFEFE" transform="translate(694,73)"/>
<path d="M0 0 C7.8653389 -0.12369279 15.73011033 -0.21438726 23.59619141 -0.2746582 C26.27180927 -0.29696178 28.94608993 -0.333886 31.62158203 -0.37719727 C35.46924766 -0.4379198 39.31600477 -0.4662284 43.1640625 -0.48828125 C44.35802643 -0.51408768 45.55199036 -0.5398941 46.78213501 -0.56648254 C56.05556966 -0.56960749 56.05556966 -0.56960749 59.75463867 2.33325195 C63.24705739 6.48109251 62.76713859 9.73998722 62.53125 14.953125 C62 18 62 18 59.6875 21.25 C55.86957631 23.73608985 53.15854129 24.12391268 48.70239258 24.11352539 C47.62149857 24.11344986 46.54060455 24.11337433 45.42695618 24.11329651 C44.26125595 24.10813522 43.09555573 24.10297394 41.89453125 24.09765625 C40.70018967 24.0962413 39.50584808 24.09482635 38.27531433 24.09336853 C34.45435092 24.0877635 30.63344575 24.07521011 26.8125 24.0625 C24.22461022 24.05748565 21.63671952 24.05292263 19.04882812 24.04882812 C12.69917817 24.03864261 6.34965441 24.01906803 0 24 C0 16.08 0 8.16 0 0 Z " fill="#FEFEFE" transform="translate(1095,73)"/>
<path d="M0 0 C9.9 0 19.8 0 30 0 C30 9.57 30 19.14 30 29 C20.1 29 10.2 29 0 29 C0 19.43 0 9.86 0 0 Z " fill="#E77327" transform="translate(968,121)"/>
</svg>
