<svg height="520" viewBox="0 0 495 52" width="4950" xmlns="http://www.w3.org/2000/svg" xmlns:xlink="http://www.w3.org/1999/xlink"><mask id="a" fill="#fff"><path d="m.06.133h62.072v50.31h-62.072z" fill="#fff" fill-rule="evenodd"/></mask><g fill="none" fill-rule="evenodd"><g fill="#000"><path d="m0 .133h62.132v12.51h-22.912v37.8h-16.306v-37.8h-22.914z" mask="url(#a)" transform="translate(0 1)"/><path d="m85.567 25.873h26.954c4.406 0 6.023-1.668 6.023-5.283v-1.664c0-4.451-2.352-5.283-7.492-5.283h-25.485zm-16.304-24.74h49.207c12.558 0 15.937 5.906 15.937 14.941v3.196c0 6.744-1.615 10.701-9.109 12.371v.138c4.848.834 8.889 2.852 8.889 11.119v8.545h-16.304v-6.043c0-5.281-1.616-7.021-6.686-7.021h-25.63v13.064h-16.304z"/><path d="m146.312 51.444h16.302v-50.311h-16.302z"/><path d="m174.513 1.133h55.523v12.092h-39.217v9.384h37.382v11.672h-37.382v17.162h-16.306z"/><path d="m255.453 28.998c0 7.297 1.616 10.078 9.327 10.078h20.857c7.715 0 9.327-2.781 9.327-10.078v-5.418c0-6.254-1.612-10.076-10.204-10.076h-19.098c-8.593 0-10.209 3.822-10.209 10.076zm-16.742-10.213c0-14.732 8.738-18.205 23.428-18.205h26.143c14.689 0 23.429 3.473 23.429 18.205v15.008c0 14.734-8.74 18.207-23.429 18.207h-26.143c-14.69 0-23.428-3.473-23.428-18.207z"/><path d="m337.866 25.873h26.951c4.41 0 6.021-1.668 6.021-5.283v-1.664c0-4.451-2.35-5.283-7.488-5.283h-25.484zm-16.307-24.74h49.206c12.563 0 15.938 5.906 15.938 14.941v3.196c0 6.744-1.615 10.701-9.105 12.371v.138c4.847.834 8.888 2.852 8.888 11.119v8.545h-16.308v-6.043c0-5.281-1.615-7.021-6.682-7.021h-25.63v13.064h-16.307z"/><path d="m397.728 1.133h16.299v18.486h7.643l20.56-18.486h22.182l-28.789 24.601 32.168 25.709h-23.063l-23.501-19.314h-7.2v19.314h-16.299z"/></g><path d="m478.816 51.444h15.422v-14.176h-15.422z" fill="#f60"/><path d="m475.373 3.252h-1.53v1.733h1.552c.46 0 .92-.267.92-.866 0-.76-.588-.867-.942-.867zm1.317 3.906h-.461l-.984-1.787h-1.402v1.787h-.396v-4.291h1.926c.835 0 1.338.47 1.338 1.252 0 .652-.417 1.123-1.049 1.23zm-1.809-5.651c-1.916 0-3.467 1.563-3.467 3.5 0 1.926 1.551 3.489 3.467 3.489s3.478-1.563 3.478-3.489c0-1.937-1.562-3.5-3.478-3.5zm0 7.374c-2.13 0-3.863-1.744-3.863-3.874 0-2.14 1.733-3.874 3.863-3.874s3.874 1.734 3.874 3.874c0 2.13-1.744 3.874-3.874 3.874z" fill="#000"/></g></svg>
