<svg data-name="Layer 1" fill="currentColor" focusable="false" role="presentation" svg-inline="" tabindex="-1" viewBox="0 0 545 64" xmlns="http://www.w3.org/2000/svg"><path d="M14.855 6c1.49 0 2.114.421 2.68 2.338L27.822 40.86c1.005 3.793 2.499 5.822 5.143 5.822h.124c2.645 0 4.138-2.029 5.144-5.822L48.517 8.338C49.084 6.421 49.709 6 51.197 6h7.789a1.886 1.886 0 011.923 2.642L49.635 43.573c-3.291 9.582-4.963 15.031-14.89 15.031H31.31c-9.927 0-11.6-5.449-14.89-15.031L5.144 8.642a1.997 1.997 0 01.373-2.081A1.98 1.98 0 017.067 6z" fill-rule="evenodd"></path><path d="M142.37 6.318c1.592 0 2.335.696 2.335 2.189v6.858a2.032 2.032 0 01-2.339 2.323H114.92c-3.83 0-5.774 1.537-5.774 4.565v4.789h18.466a2.692 2.692 0 011.891.574 2.313 2.313 0 01.6 1.75v6.857c0 1.494-.792 2.19-2.49 2.19h-18.467v4.421c0 3.028 1.988 4.565 5.91 4.565h27.31a2.033 2.033 0 012.34 2.324v6.858a2.195 2.195 0 01-.563 1.652 2.533 2.533 0 01-1.774.537h-30.114c-10.113 0-15.03-5.135-15.03-15.699V22.554c0-10.925 4.872-16.236 14.895-16.236z" fill-rule="evenodd"></path><path d="M450.5 6.318c1.592 0 2.334.696 2.334 2.19v6.857a2.031 2.031 0 01-2.337 2.323H423.05c-3.83 0-5.774 1.537-5.774 4.566v20.58c0 3.028 1.987 4.565 5.91 4.565h27.311a2.032 2.032 0 012.337 2.324v6.858a2.189 2.189 0 01-.56 1.652 2.528 2.528 0 01-1.774.537h-30.115c-10.114 0-15.03-5.135-15.03-15.7V22.555c0-10.924 4.872-16.236 14.896-16.236z" fill-rule="evenodd"></path><path d="M317.762 6.318a2.03 2.03 0 012.332 2.324v6.723a2.028 2.028 0 01-2.332 2.323h-17.108V56.3c0 1.685-.735 2.47-2.315 2.47h-7.107c-1.58 0-2.315-.785-2.315-2.47V17.688H271.77c-1.69 0-2.476-.737-2.476-2.323V8.642c0-1.585.784-2.324 2.467-2.324z" fill-rule="evenodd"></path><path d="M365.064 6.318c1.671 0 2.45.7 2.45 2.198v48.055c0 1.5-.779 2.2-2.45 2.2h-6.972c-1.58 0-2.315-.786-2.315-2.47V8.516c0-1.499.778-2.198 2.45-2.198z" fill-rule="evenodd"></path><path d="M235.008 55.962l-5.785-17.922c3.64-2.445 5.445-6.8 5.464-13.148v-2.31c0-10.942-4.867-16.264-14.882-16.264h-30.67c-1.683 0-2.467.7-2.467 2.199v47.785c0 1.683.736 2.468 2.315 2.468h7.107c1.58 0 2.315-.777 2.315-2.445V40.62h19.262l4.948 15.645c.567 1.92 1.191 2.339 2.682 2.339h7.788a1.888 1.888 0 001.923-2.642zM222.95 24.604c-.015 3.082-2.102 4.436-6.202 4.436h-18.342V17.688h18.612c3.935 0 5.932 1.576 5.932 4.678z" fill-rule="evenodd"></path><path d="M539.29 55.961l-11.276-34.93C524.724 11.447 523.051 6 513.125 6h-3.436c-9.928 0-11.598 5.447-14.89 15.03l-11.274 34.93a1.888 1.888 0 001.923 2.643h7.787c1.49 0 2.113-.42 2.681-2.34l2.81-8.883h25.363l2.81 8.883c.565 1.92 1.19 2.34 2.678 2.34h7.79a1.888 1.888 0 001.922-2.643zm-36.97-19.95l3.88-12.268c1.006-3.792 2.5-5.823 5.143-5.823h.126c2.644 0 4.137 2.031 5.143 5.823l3.88 12.267z" fill-rule="evenodd"></path></svg>