<svg width="256" height="152" viewBox="0 0 256 152" fill="none" xmlns="http://www.w3.org/2000/svg">
<g clip-path="url(#clip0_224_8343)">
<path d="M50.6878 126.674C50.6878 140.664 39.336 152.01 25.3386 152.01C11.3412 152.01 0 140.664 0 126.674V25.3368C0 11.3463 11.3518 0 25.3491 0C39.3465 0 50.6983 11.3463 50.6983 25.3368V126.674H50.6878Z" fill="#002800"/>
<path d="M136.864 25.3368C136.864 11.3463 148.216 0 162.213 0C176.211 0 187.563 11.3463 187.563 25.3368V126.674C187.563 140.664 176.211 152.01 162.213 152.01C148.216 152.01 136.864 140.664 136.864 126.674V25.3368Z" fill="#002800"/>
<path d="M119.125 126.674C119.125 140.664 107.774 152.011 93.7762 152.011C79.7788 152.011 68.427 140.664 68.427 126.674V76.0106C68.427 62.02 79.7788 50.6737 93.7762 50.6737C107.774 50.6737 119.125 62.02 119.125 76.0106V126.674Z" fill="#002800"/>
<path d="M256 126.674C256 140.664 244.649 152.011 230.651 152.011C216.654 152.011 205.302 140.664 205.302 126.674C205.302 112.683 216.654 101.337 230.651 101.337C244.649 101.337 256 112.683 256 126.674Z" fill="#00FFC8"/>
</g>
<defs>
<clipPath id="clip0_224_8343">
<rect width="256" height="152" fill="white"/>
</clipPath>
</defs>
</svg>
