<svg xmlns="http://www.w3.org/2000/svg" viewBox="0 0 85 18.3" width="850" height="183"><path fill-rule="evenodd" clip-rule="evenodd" fill="#CD0921" d="M24.8 17.9c-1.2.3-2.4.4-3.6.4-4.3 0-7.1-2-7.1-6.7 0-4.5 2.9-6.4 7-6.4 1.2 0 2.4.1 3.6.3v2.2c-.9-.1-1.6-.2-2.4-.2-3.3 0-4.9 1-4.9 4.3 0 3.1 1.5 4.2 4.9 4.2.9 0 1.6-.1 2.4-.2v2.1z"/><path fill="#CD0921" d="M69.1 18h3.2V5.4h-3.2V18zm0-15.1h3.2V0h-3.2v2.9z"/><path fill-rule="evenodd" clip-rule="evenodd" fill="#CD0921" d="M66.5 17.7c-.6.1-2.8.5-5 .5-4.1 0-7.1-1.9-7.1-6.5 0-4.4 2.7-6.6 6.8-6.6.6 0 1.6.1 2.1.1V0h3.2v17.7m-3.1-1.9V7.6c-.4 0-1.1-.1-1.8-.1-2.9 0-4 1.4-4 4.3 0 2.6 1 4.2 3.9 4.2.6 0 1.2-.1 1.9-.2M52.3 18h-3.1V9.7c0-1.4-.6-2.2-2.6-2.2-1.4 0-2.9.3-2.9.3V18h-3.1V5.8c.2 0 4.2-.6 6.5-.6 2.8 0 5.3.5 5.3 4.3V18zM38 18c-2.2.2-3.9.3-5.8.3-3.2 0-5.8-.5-5.8-4.1 0-3.5 3.2-3.7 6.1-3.8h2.3c0-2.2-.1-3-3.3-3-1.6 0-3.3.3-4.3.5V5.6c1.2-.3 3.1-.4 4.5-.5 3.6 0 6.3.4 6.3 4.2V18zm-3.2-1.9v-3.6h-2.1c-1.9 0-3.1.1-3.1 1.9 0 1.8 1.5 1.9 3 1.9.9-.1 1.4-.1 2.2-.2M85 17.9c-1.2.3-2.4.4-3.6.4-4.3 0-7.1-2-7.1-6.7 0-4.5 2.9-6.4 7-6.4 1.2 0 2.4.1 3.6.3v2.2c-.9-.1-1.6-.2-2.4-.2-3.3 0-4.9 1-4.9 4.3 0 3.1 1.5 4.2 4.9 4.2.9 0 1.6-.1 2.4-.2v2.1zM12.5 13c0 3.7-2.9 5.3-7.2 5.3-2.8 0-4.8-.5-5.1-.6v-2.6c1 .2 3.1.7 4.9.7 1.8 0 4.1-.4 4.1-2.4 0-1.3-1-1.8-2.8-2.3l-2.1-.6C1.9 9.8 0 8.8 0 6c0-4 3.2-5 6.9-5 2.2 0 4 .4 4.3.5v2.4c-.4-.1-2.1-.5-4-.5-1.8 0-3.9.2-3.9 2.2 0 1.5 1.2 1.9 2.9 2.3.8.3 1.6.4 2.4.7 2.1.6 3.9 1.6 3.9 4.4"/></svg>
