<svg xmlns="http://www.w3.org/2000/svg" xmlns:xlink="http://www.w3.org/1999/xlink" width="1080" zoomAndPan="magnify" viewBox="0 0 810 1799.999925" height="2400" preserveAspectRatio="xMidYMid meet" version="1.2"><defs><clipPath id="c29d84e86c"><path d="M 0 329.789062 L 349 329.789062 L 349 629 L 0 629 Z M 0 329.789062 "/></clipPath><clipPath id="e5b7a2cb63"><path d="M 0 362.523438 L 549 362.523438 L 549 616.773438 L 0 616.773438 Z M 0 362.523438 "/></clipPath><clipPath id="c71b680238"><path d="M 0 317.65625 L 810 317.65625 L 810 568.15625 L 0 568.15625 Z M 0 317.65625 "/></clipPath></defs><g id="c02c607ecf"><rect x="0" width="810" y="0" height="1799.999925" style="fill:#ffffff;fill-opacity:1;stroke:none;"/><rect x="0" width="810" y="0" height="1799.999925" style="fill:#ffffff;fill-opacity:1;stroke:none;"/><g clip-rule="nonzero" clip-path="url(#c29d84e86c)"><path style=" stroke:none;fill-rule:nonzero;fill:#d7dff4;fill-opacity:1;" d="M 348.113281 628.808594 L -1048.964844 628.808594 L -1048.964844 464.804688 C -583.179688 717.992188 -117.671875 142.59375 348.113281 395.777344 Z M 348.113281 628.808594 "/></g><g clip-rule="nonzero" clip-path="url(#e5b7a2cb63)"><path style=" stroke:none;fill-rule:nonzero;fill:#0026ce;fill-opacity:1;" d="M 548.566406 616.402344 L -637.617188 616.402344 L -637.617188 477.15625 C -242.144531 692.121094 153.09375 203.582031 548.566406 418.550781 Z M 548.566406 616.402344 "/></g><g clip-rule="nonzero" clip-path="url(#c71b680238)"><path style=" stroke:none;fill-rule:nonzero;fill:#11347e;fill-opacity:1;" d="M 1019.449219 568.15625 L -151.777344 568.15625 L -151.777344 430.761719 C 238.710938 642.867188 628.964844 160.832031 1019.449219 372.9375 Z M 1019.449219 568.15625 "/></g></g></svg>